<svg fill="none" height="40" viewBox="0 0 40 40" width="40" xmlns="http://www.w3.org/2000/svg"><rect fill="#000" height="40" rx="20" width="40" y="0"/><path d="m12.5829 31.3338 3.2798-5.6767 3.277-5.6567 3.2584-5.6766.5412-.9.2378.9.9998 3.737-1.1194 1.9396-3.277 5.6567-3.2584 5.6767h3.9164l3.2784-5.6767 1.699-2.938.8003 2.938 1.5182 5.6767h3.5176l-1.5181-5.6767-1.5196-5.6567-.3988-1.4597 2.4382-4.2169h-3.5575l-.1211-.4201-1.239-4.63702-.1595-.59957h-3.4179l-.0798.11963-3.1986 5.53706-3.2784 5.6766-3.257 5.6567-3.2784 5.6767z" fill="#fff"/></svg>