<svg fill="none" height="32" viewBox="0 0 32 32" width="32" xmlns="http://www.w3.org/2000/svg"><path d="m16 31c8.2843 0 15-6.7157 15-15 0-8.28427-6.7157-15-15-15-8.28427 0-15 6.71573-15 15 0 8.2843 6.71573 15 15 15z" fill="#fff"/><path d="m16 31.5c8.5604 0 15.5-6.9396 15.5-15.5 0-8.56041-6.9396-15.5-15.5-15.5-8.56041 0-15.5 6.93959-15.5 15.5 0 8.5604 6.93959 15.5 15.5 15.5z" stroke="#05183d" stroke-opacity=".1"/><path d="m21.3294 8.26154c-1.4459-1.41711-3.3797-2.22642-5.404-2.2615l-.0052-.00004c-2.0982.00785-4.1081.84482-5.5918 2.32844-1.48358 1.48361-2.32055 3.49446-2.3284 5.59266-.0001.8741.14063 1.7426.41697 2.5719l.00248.0068c.11808.323.35522.5886.66284.7424.30761.1538.6624.1842.99171.0848l.0084-.0025.0081-.0031c.3199-.1215.5812-.3606.7307-.6684.1495-.3077.1761-.661.0739-.9875l-.004-.0109c-.2165-.594-.3128-1.2251-.2835-1.8566l.0002-.0042c.0303-1.0245.358-2.0179.9429-2.8595.585-.8415 1.4021-1.49478 2.3517-1.88023s1.9908-.48643 2.9968-.29065 1.9334.67986 2.6692 1.39328c.7357.7135 1.2482 1.6255 1.4749 2.625.2266.9994.1578 2.0433-.1982 3.0043-.356.9611-.9838 1.7979-1.8069 2.4085s-1.806.9687-2.829 1.0306l-.0014.0001-.0469.003-.1296.0086c-.1095.0074-.2611.018-.4298.0307-.3355.0253-.7441.0593-1.0204.0938l-.0039.0006c-.1214.0171-.2422.0381-.3622.0629l.1224-.6608 1.0097-4.5724.0004-.0018c.0719-.3374.0068-.6895-.1809-.9789-.1877-.2893-.4827-.4923-.82-.5642-.3374-.0719-.6895-.0068-.9788.1809-.2893.1876-.4923.4828-.5643.82l-.3758 1.7472c-.2256 1.0492-.5264 2.4492-.8272 3.8524s-.6016 2.8097-.8273 3.8717c-.1128.531-.2068.9762-.2727 1.2919-.033.1577-.0589.2836-.0767.3718-.0089.044-.0159.0795-.0208.1051-.0023.0127-.0044.0242-.006.0336l-.0013.0082c-.0383.1636-.0437.3332-.0159.4991.0285.1704.0915.3333.1852.4786s.216.2699.3595.3663c.1418.0951.3013.1607.4689.1929.1662.0389.3385.0441.5068.0152.1704-.0293.333-.0929.478-.1869.145-.0941.2694-.2167.3656-.3603.0948-.1416.1603-.3009.1925-.4682.0219-.0915.1049-.4904.1815-.8614.0401-.1938.079-.3834.108-.5245l.0479-.2339c.1014-.4955.3523-.948.7188-1.2966.3664-.3483.8306-.5761 1.3303-.6526.1057-.0153.3965-.0399.6729-.0612.1359-.0105.2648-.0199.3597-.0267l.1135-.0081.0421-.0029.0058-.0005c2.0159-.1863 3.8839-1.1379 5.2198-2.6592 1.3358-1.5212 2.0381-3.4965 1.9624-5.5196-.0758-2.0231-.9237-3.94034-2.3696-5.35746z" fill="#1e1e1e"/><path d="m16.3034 23.5297c-.1938-.039-.3934-.0396-.5874-.0017s-.3786.1135-.5431.2226-.3057.2494-.4155.4129-.1861.347-.2243.5399c-.0417.1928-.044.392-.0069.5858s.113.3782.223.5423.252.3047.4176.4133.3514.1831.5465.219c.1938.0438.3945.0479.5899.012.1954-.036.3814-.1112.5465-.221.1652-.1099.3061-.2521.4141-.4179.1081-.1659.1809-.3519.2142-.5467.0662-.387-.0184-.7845-.2366-1.1116-.2183-.3271-.5537-.5591-.938-.6489z" fill="#e6007a"/></svg>