<svg width="32" height="32" viewBox="0 0 32 32" fill="none" xmlns="http://www.w3.org/2000/svg"><path d="M16 32C24.8366 32 32 24.8366 32 16C32 7.16344 24.8366 0 16 0C7.16344 0 0 7.16344 0 16C0 24.8366 7.16344 32 16 32Z" fill="url(#paint0_radial)"/><path d="M13.6187 11.9129C13.5832 12.0518 13.5211 12.1822 13.4361 12.2968C13.2777 12.5057 13.0682 12.6686 12.8284 12.7693C12.6127 12.8638 12.3843 12.9248 12.1509 12.9505C12.104 12.9565 12.0554 12.9603 12.0082 12.964L11.997 12.9648C11.8492 12.9705 11.707 13.0242 11.5913 13.1181C11.4756 13.2119 11.3925 13.3409 11.3541 13.4862C11.3366 13.5586 11.3235 13.6319 11.315 13.7059C11.3016 13.8174 11.2947 13.9316 11.2872 14.0551C11.2818 14.1438 11.2762 14.2373 11.2676 14.338C11.2174 14.7484 11.1006 15.1475 10.9221 15.5191C10.8856 15.5972 10.8485 15.6729 10.8119 15.7472C10.6162 16.1458 10.4393 16.5059 10.4901 16.9881C10.5298 17.3596 10.717 17.6086 10.9657 17.8654C11.0838 17.9883 11.2405 18.0932 11.403 18.2022C11.8581 18.5071 12.3597 18.8433 12.1945 19.6903C12.0592 20.3766 10.9401 21.0968 9.3671 21.3484C9.51975 21.3248 9.1833 20.7413 9.14621 20.6769L9.14403 20.6731C9.10064 20.604 9.0562 20.536 9.01182 20.468C8.88379 20.2719 8.75638 20.0768 8.65689 19.8604C8.39409 19.2954 8.2723 18.6416 8.37999 18.0224C8.47754 17.4621 8.84189 17.0144 9.1927 16.5834C9.24987 16.5131 9.30674 16.4433 9.36197 16.3735C9.83117 15.7811 10.3234 15.0049 10.4324 14.2358C10.4416 14.1689 10.4498 14.096 10.4584 14.0194C10.4739 13.8822 10.4907 13.7328 10.517 13.584C10.5561 13.3269 10.6353 13.0779 10.7516 12.8462C10.831 12.6942 10.9355 12.5573 11.0606 12.4415C11.1258 12.38 11.1688 12.298 11.1827 12.2086C11.1967 12.1193 11.1808 12.0278 11.1375 11.9487L8.62997 7.36296L12.2317 11.8822C12.2727 11.9346 12.3245 11.9772 12.3835 12.0069C12.4425 12.0366 12.5072 12.0528 12.573 12.0541C12.6389 12.0556 12.7042 12.0423 12.7644 12.0152C12.8246 11.988 12.8782 11.9478 12.9213 11.8972C12.9669 11.8431 12.9929 11.7747 12.9946 11.7035C12.9963 11.6322 12.9739 11.5626 12.931 11.5062C12.7632 11.2882 12.5886 11.0673 12.4149 10.8474C12.345 10.7589 12.2751 10.6705 12.206 10.5827L11.2997 9.44207L9.48055 7.16483L7 4L9.71387 6.96083L11.6503 9.1377L12.6163 10.2287C12.7052 10.3306 12.7941 10.4315 12.8831 10.5324C13.1146 10.7952 13.3461 11.058 13.5777 11.3367L13.6302 11.4019L13.6418 11.5029C13.6574 11.6399 13.6497 11.7786 13.6187 11.9129Z" fill="#FF007A"/><path d="M22.8758 13.4463L22.8797 13.4522C22.879 12.9659 22.5828 12.1636 21.9836 11.392L21.9695 11.3731C21.7849 11.141 21.5837 10.9232 21.3676 10.7213C21.3272 10.6815 21.2836 10.6424 21.2394 10.6033C20.9625 10.3578 20.6598 10.144 20.3368 9.96591L20.3138 9.95418C19.2991 9.39236 17.9787 9.10298 16.3506 9.42886C16.1319 9.15894 15.8964 8.90357 15.6455 8.66435C15.2613 8.29206 14.809 7.99999 14.3142 7.80469C13.8239 7.62218 13.2988 7.55706 12.7797 7.61437C13.2801 7.66017 13.7675 7.8017 14.2161 8.03149C14.6495 8.26755 15.0398 8.57751 15.3699 8.94787C15.7045 9.32591 16.0191 9.72188 16.3121 10.1341L16.3861 10.2319C16.6727 10.6115 16.9645 10.9979 17.3281 11.3418C17.5283 11.5334 17.7516 11.6983 17.9928 11.8325C18.0569 11.8658 18.1216 11.897 18.1851 11.9244C18.2485 11.9519 18.3081 11.9772 18.3723 12.0007C18.496 12.0496 18.6242 12.09 18.7524 12.1272C19.2652 12.2757 19.7901 12.3292 20.3029 12.3579C20.373 12.3616 20.443 12.3651 20.5127 12.3686C20.6971 12.3778 20.8799 12.387 21.0599 12.4002C21.3049 12.4151 21.5479 12.4539 21.7855 12.5162C22.1425 12.6108 22.4567 12.8271 22.6758 13.1289C22.7503 13.2294 22.8172 13.3355 22.8758 13.4463Z" fill="#FF007A"/><path d="M21.3691 10.7197C21.3432 10.6954 21.3168 10.6713 21.2906 10.6473L21.2409 10.6017L21.2791 10.6374C21.3092 10.6658 21.3393 10.694 21.3691 10.7197Z" fill="#FF007A"/><path d="M20.7432 15.5228C19.0942 14.8424 17.3693 14.1308 17.6261 12.1332C18.1767 12.731 19.0409 12.8563 19.9808 12.9926C20.8335 13.1163 21.7485 13.249 22.5482 13.7515C24.4353 14.9364 24.1597 17.2385 23.5187 18.0857C23.5765 16.6918 22.189 16.1193 20.7432 15.5228Z" fill="#FF007A"/><path d="M14.089 14.5214C14.5242 14.4791 15.4517 14.249 15.037 13.5067C14.9477 13.3556 14.8184 13.2332 14.6639 13.1536C14.5094 13.0739 14.3358 13.0402 14.1633 13.0563C13.9882 13.0754 13.8231 13.1488 13.6905 13.2666C13.5578 13.3843 13.464 13.5407 13.4217 13.7146C13.2929 14.2001 13.4294 14.5866 14.089 14.5214Z" fill="#FF007A"/><path d="M13.9742 8.6471C13.7011 8.32643 13.2774 8.15828 12.8621 8.09701C12.8465 8.20219 12.8367 8.30815 12.8326 8.41442C12.814 9.28973 13.1198 10.2511 13.7113 10.9191C13.9006 11.1351 14.1289 11.3121 14.3837 11.4405C14.5312 11.5136 14.9222 11.6947 15.067 11.5318C15.078 11.5169 15.085 11.4992 15.0871 11.4807C15.0893 11.4621 15.0865 11.4433 15.0792 11.4262C15.0552 11.3564 15.0088 11.2931 14.9628 11.2302C14.9301 11.1857 14.8977 11.1413 14.8735 11.0951C14.849 11.0486 14.8229 11.0032 14.7967 10.9579C14.7475 10.8724 14.6983 10.7871 14.6606 10.6943C14.5613 10.4515 14.5096 10.1932 14.458 9.93585C14.4477 9.88452 14.4374 9.83294 14.4267 9.78181C14.3478 9.38489 14.2472 8.96776 13.9742 8.6471Z" fill="#FF007A"/><path d="M19.8092 15.6314C19.3857 16.8333 20.0688 17.8485 20.748 18.8578C21.5077 19.9867 22.2623 21.1081 21.4572 22.4749C23.0218 21.8179 23.7647 19.8333 23.1154 18.2586C22.7062 17.2627 21.7202 16.7228 20.8048 16.2216C20.4497 16.0272 20.1052 15.8386 19.8092 15.6314Z" fill="#FF007A"/><path d="M15.2217 18.5007C14.9382 18.6184 14.6708 18.7728 14.4262 18.9602C14.9823 18.7552 15.566 18.638 16.1569 18.6128C16.2638 18.6064 16.3715 18.6014 16.48 18.5963C16.6681 18.5875 16.8593 18.5785 17.0543 18.562C17.3737 18.54 17.6887 18.4742 17.9907 18.3665C18.3073 18.2539 18.5954 18.0714 18.8343 17.832C19.0756 17.585 19.2449 17.2748 19.3233 16.9359C19.3923 16.6156 19.3827 16.2831 19.2951 15.9677C19.2076 15.6521 19.0449 15.3635 18.8215 15.1272C18.9293 15.4052 18.9956 15.6981 19.0183 15.996C19.0378 16.2734 19.0007 16.5519 18.9093 16.814C18.82 17.0624 18.6742 17.2857 18.4837 17.4657C18.2868 17.6475 18.0589 17.7911 17.8113 17.8894C17.4671 18.0303 17.078 18.088 16.6726 18.1481C16.4876 18.1755 16.2992 18.2034 16.1101 18.24C15.8062 18.2966 15.5086 18.384 15.2217 18.5007Z" fill="#FF007A"/><path fill-rule="evenodd" clip-rule="evenodd" d="M20.1669 23.4368L20.1104 23.4829C20.0386 23.5417 19.9655 23.6015 19.8869 23.6552C19.7869 23.7221 19.6821 23.7814 19.5734 23.8325C19.3471 23.9447 19.0983 24.002 18.8466 23.9999C18.1646 23.9869 17.6825 23.4707 17.4005 22.8874C17.3265 22.7345 17.2614 22.5769 17.1963 22.4193C17.092 22.167 16.9878 21.9147 16.8473 21.6816C16.5211 21.14 15.9628 20.704 15.3089 20.7848C15.0424 20.8187 14.7923 20.9406 14.6443 21.1759C14.2546 21.7905 14.8141 22.6514 15.5275 22.5296C15.5882 22.5202 15.6476 22.5035 15.7045 22.48C15.7611 22.4555 15.814 22.4228 15.8615 22.3829C15.9612 22.2986 16.0363 22.1881 16.0788 22.0636C16.1257 21.9337 16.1361 21.7931 16.1089 21.6575C16.0796 21.5158 15.9974 21.3912 15.8794 21.3101C16.0165 21.3754 16.1234 21.4922 16.1775 21.636C16.2336 21.7839 16.248 21.9449 16.2192 22.1007C16.1912 22.2631 16.1207 22.4148 16.0153 22.54C15.9593 22.6044 15.8946 22.6604 15.823 22.7062C15.7521 22.7515 15.6762 22.7881 15.5968 22.815C15.4358 22.871 15.2644 22.889 15.0955 22.8679C14.8584 22.8335 14.6348 22.7349 14.4481 22.5824C14.4218 22.5612 14.3962 22.5392 14.3713 22.5166C14.2317 22.3974 14.1059 22.2623 13.9961 22.1141C13.9533 22.0663 13.9096 22.0191 13.8642 21.9736C13.6357 21.7298 13.366 21.5296 13.0681 21.3825C12.8626 21.2907 12.6476 21.2229 12.4271 21.1804C12.3162 21.157 12.204 21.14 12.0919 21.1257C12.0797 21.1244 12.0564 21.1203 12.0273 21.1152C11.9337 21.0986 11.781 21.0716 11.7541 21.097C12.1008 20.7725 12.4788 20.4843 12.8822 20.2367C13.2965 19.9867 13.7413 19.7932 14.2052 19.6612C14.6862 19.5235 15.1892 19.4843 15.6852 19.5458C15.9405 19.577 16.1906 19.6428 16.4288 19.7413C16.6783 19.8427 16.9087 19.9874 17.1095 20.1689C17.3082 20.3593 17.4689 20.5871 17.5826 20.8396C17.6851 21.0759 17.7616 21.3231 17.8107 21.5767C17.837 21.7131 17.8568 21.863 17.8773 22.0181C17.9708 22.7252 18.0787 23.541 18.8793 23.6832C18.9301 23.6932 18.9815 23.7006 19.0331 23.7053L19.1927 23.7093C19.3024 23.7013 19.4114 23.6854 19.519 23.6617C19.7417 23.6084 19.9587 23.5331 20.1669 23.4368ZM14.0111 22.1308C14.0559 22.1843 14.1021 22.2366 14.1494 22.2877C14.1264 22.2618 14.1036 22.2358 14.0808 22.2098C14.0576 22.1834 14.0344 22.157 14.0111 22.1308Z" fill="#FF007A"/><defs><radialGradient id="paint0_radial" cx="0" cy="0" r="1" gradientUnits="userSpaceOnUse" gradientTransform="translate(29) rotate(-180) scale(41 20.5246)"><stop stop-color="#FFCAE3"/><stop offset="1" stop-color="#F3F5F7"/></radialGradient></defs></svg>